PathFileType	4	(X/Y/Z)	 s07c0303.trc
DataRate	CameraRate	NumFrames	NumMarkers	Units	OrigDataRate	OrigDataStartFrame	OrigNumFrames
200	200	4	48	mm	200	1	2000
Frame#	Time	racr			lacr			c7			jug			rlel			rdr			llel			ldr			s2			lic			ric			lasi			rasi			rpsi			lpsi			rgt			lgt			rth1			rth2			rth3			rth4			rlfc			rmfc			rsh1			rsh2			rsh3			rsh4			rlmal			rcal			rtoe			rmt5			lth1			lth2			lth4			lth3			llfc			lmfc			lsh1			lsh2			lsh3			lsh4			llmal			lcal			ltoe			lmt5			SBIKE			LBIKE			RBIKE			
		X1	Y1	Z1	X2	Y2	Z2	X3	Y3	Z3	X4	Y4	Z4	X5	Y5	Z5	X6	Y6	Z6	X7	Y7	Z7	X8	Y8	Z8	X9	Y9	Z9	X10	Y10	Z10	X11	Y11	Z11	X12	Y12	Z12	X13	Y13	Z13	X14	Y14	Z14	X15	Y15	Z15	X16	Y16	Z16	X17	Y17	Z17	X18	Y18	Z18	X19	Y19	Z19	X20	Y20	Z20	X21	Y21	Z21	X22	Y22	Z22	X23	Y23	Z23	X24	Y24	Z24	X25	Y25	Z25	X26	Y26	Z26	X27	Y27	Z27	X28	Y28	Z28	X29	Y29	Z29	X30	Y30	Z30	X31	Y31	Z31	X32	Y32	Z32	X33	Y33	Z33	X34	Y34	Z34	X35	Y35	Z35	X36	Y36	Z36	X37	Y37	Z37	X38	Y38	Z38	X39	Y39	Z39	X40	Y40	Z40	X41	Y41	Z41	X42	Y42	Z42	X43	Y43	Z43	X44	Y44	Z44	X45	Y45	Z45	X46	Y46	Z46	X47	Y47	Z47	X48	Y48	Z48	
1	0.0050	487.254942	1330.358264	-70.243423	468.879575	1325.067428	-366.267998	475.406847	1360.527575	-221.330854	410.375490	1231.353059	-218.056989	457.443070	1008.332570	52.288012	715.284060	915.191471	-47.739778	462.225470	1022.253790	-504.218759	721.956659	916.193252	-401.319116	-124.127394	1220.975391	-232.824140	51.076024	1239.806310	-370.703865	48.911788	1212.230387	-77.560093	63.215965	1153.587811	-347.997948	48.887114	1159.132610	-94.681851	-90.294958	1251.914991	-179.077858	-73.078707	1263.552410	-285.466792	-31.937389	1117.009270	-35.545582	-31.772520	1107.447930	-409.903641	102.613921	1037.084487	-36.265641	185.075951	1009.984781	-48.113262	245.022357	948.831950	-48.097289	201.956188	1039.552105	-63.251299	353.198939	858.730636	-82.083389	NaN	NaN	NaN	315.005584	718.859028	-59.025925	312.140043	631.287945	-79.100950	270.418412	555.305843	-74.839017	327.575481	631.527618	-115.911523	226.126111	425.888285	-78.174559	160.846337	382.995767	-106.569358	450.329374	371.408745	-118.618201	374.219228	334.171014	-48.481727	30.974461	1004.919508	-414.367330	106.508621	959.119228	-417.183350	132.797215	983.725085	-410.023982	149.899483	881.576701	-414.536497	258.161000	731.739187	-382.401402	246.268465	716.950385	-283.096899	154.625567	622.449732	-403.008271	107.285088	553.363346	-382.271487	29.397921	508.705654	-392.705084	109.782784	555.287227	-340.849177	-74.484084	422.523641	-392.280603	-156.335837	403.988861	-359.212182	117.257569	310.352402	-354.767784	33.637489	308.992682	-419.151737	-257.848673	964.315635	-231.894943	-75.697073	83.545210	-437.118172	-81.983145	79.230025	-39.526546	
2	0.0100	487.232384	1330.343482	-70.242536	469.437409	1325.330841	-366.692791	475.360683	1360.531784	-221.319049	410.354575	1231.399137	-218.056557	457.428341	1008.322944	52.327287	715.280976	915.214050	-47.719030	462.232664	1022.273901	-504.229393	721.943888	916.186037	-401.312411	-124.146220	1220.958002	-232.860024	51.036191	1239.798583	-370.761676	48.855903	1212.216499	-77.565348	63.189295	1153.596389	-348.027968	48.827799	1159.117612	-94.673723	-90.334029	1251.901018	-179.113993	-73.106633	1263.541777	-285.514873	-31.967936	1116.982832	-35.580292	-31.806160	1107.464085	-409.917887	102.572182	1037.048077	-36.291684	185.005774	1009.952418	-48.121005	244.952366	948.779379	-48.078436	201.897249	1039.486008	-63.247981	353.094482	858.643470	-82.062381	NaN	NaN	NaN	314.944997	718.766997	-59.017469	312.102792	631.217959	-79.070033	270.393232	555.231156	-74.829071	327.518073	631.439453	-115.913458	226.124104	425.788317	-78.167276	160.844122	382.864400	-106.562921	450.321248	371.312822	-118.610921	374.224396	334.084582	-48.488139	30.955220	1004.922324	-414.387532	106.495883	959.132021	-417.204476	132.800034	983.748893	-410.060029	149.899954	881.595396	-414.566202	258.201835	731.810507	-382.408810	246.347416	717.012324	-283.113483	154.650275	622.528671	-403.012703	107.332404	553.484758	-382.246386	29.398497	508.839117	-392.769746	109.824280	555.355553	-340.860437	-74.481619	422.616599	-392.263192	-156.326535	404.119643	-359.222098	117.245699	310.456910	-354.773071	33.610081	309.124175	-419.150131	-257.850732	964.316548	-231.901775	-75.717983	83.550770	-437.119535	-81.959698	79.201644	-39.562539	
3	0.0150	487.218535	1330.324079	-70.249725	469.390771	1325.325974	-366.676688	475.306470	1360.553294	-221.325033	410.299716	1231.374036	-218.042262	457.411543	1008.314515	52.350888	715.272678	915.208045	-47.720510	462.255571	1022.305346	-504.230087	721.942148	916.182448	-401.327329	-124.192786	1220.943622	-232.876042	51.005390	1239.807153	-370.790928	48.815446	1212.207394	-77.581766	63.148172	1153.606393	-348.041607	48.796887	1159.098047	-94.701095	-90.373816	1251.892567	-179.133350	-73.150975	1263.542909	-285.522062	-32.037572	1116.969034	-35.608962	-31.842590	1107.452643	-409.947361	102.508452	1036.980844	-36.290777	184.942204	1009.902631	-48.112257	244.869838	948.701555	-48.072848	201.826672	1039.424412	-63.244212	353.030159	858.551263	-82.039293	NaN	NaN	NaN	314.885545	718.680050	-58.989493	312.064412	631.122526	-79.054406	270.363755	555.137098	-74.810676	327.471444	631.355233	-115.876787	226.138709	425.696651	-78.163402	160.850433	382.745881	-106.539528	450.334609	371.224286	-118.602489	374.241572	333.979865	-48.506813	30.935274	1004.909923	-414.384827	106.493173	959.143503	-417.211647	132.777248	983.763422	-410.093898	149.905727	881.601253	-414.562675	258.246159	731.869443	-382.424474	246.383057	717.084699	-283.099527	154.686044	622.610154	-402.992294	107.336347	553.567838	-382.246580	29.408750	508.924514	-392.768941	109.837480	555.435623	-340.848256	-74.485731	422.724531	-392.254569	-156.332640	404.231875	-359.229344	117.244428	310.557926	-354.776689	33.604473	309.254936	-419.162631	-257.845929	964.323458	-231.904461	-75.702177	83.526318	-437.124302	-82.022809	79.477374	-39.358144	
4	0.0200	487.107935	1330.737112	-69.958803	468.780014	1325.105720	-366.227305	475.259853	1360.564941	-221.316021	410.245308	1231.380078	-218.060787	457.418465	1008.299937	52.346949	715.264672	915.214191	-47.713841	464.530546	1021.226043	-501.031521	721.916122	916.182657	-401.338604	-124.223164	1220.926743	-232.910837	50.081307	1239.489468	-368.691688	48.764468	1212.291421	-77.725579	63.099640	1153.616648	-348.092931	48.728184	1159.074218	-94.703955	-90.711557	1251.708456	-179.089325	-73.103824	1263.463424	-285.437247	-32.084924	1116.931101	-35.641452	-31.518933	1107.906601	-410.462739	102.561447	1036.584992	-37.010039	184.860552	1009.839923	-48.116867	244.788985	948.604145	-48.052168	201.763449	1039.253967	-63.385433	352.931227	858.451342	-81.995414	NaN	NaN	NaN	314.814564	718.468516	-58.930117	312.476313	630.967179	-78.818413	270.399626	554.939290	-74.826687	327.446682	631.166488	-115.971346	225.702036	426.179878	-77.708144	160.878013	382.628112	-106.561815	450.303503	371.020852	-118.707494	374.256960	333.871077	-48.491276	30.929062	1004.913906	-414.418080	106.479821	959.143805	-417.237650	132.758779	983.734287	-410.092196	149.912543	881.609603	-414.575712	258.323242	731.781119	-382.467015	246.445505	717.144653	-283.100765	154.712996	622.691836	-402.991457	107.489922	553.258972	-382.471270	29.417410	509.030186	-392.763350	110.253860	555.313983	-340.753281	-74.541012	423.061145	-392.621315	-156.355035	404.355728	-359.226494	117.219469	310.675202	-354.783980	33.591229	309.359942	-419.151115	-257.964550	964.382233	-232.437518	-75.714817	83.524548	-437.122122	-81.963205	79.226603	-39.551404	
